<?xml version="1.0" encoding="utf-8"?>
<!-- Generator: Adobe Illustrator 26.1.0, SVG Export Plug-In . SVG Version: 6.00 Build 0)  -->
<svg version="1.1" id="Capa_1" xmlns="http://www.w3.org/2000/svg" x="0px" y="0px"
     viewBox="0 0 172.4 30" style="enable-background:new 0 0 172.4 30;" xml:space="preserve">
<style type="text/css">
	.st0{fill:#1C1463;}
</style>
<g>
	<polygon class="st0" points="25.2,3 33.1,26.7 41.4,26.7 33.5,3 	"/>
	<polygon class="st0" points="9.9,3 17.8,26.7 22.2,26.7 24.2,20.7 18.3,3 	"/>
	<path class="st0" d="M5.7,18.8L5.7,18.8c-2.3,0-4.2,1.9-4.2,4.2l0,0c0,2.3,1.9,4.2,4.2,4.2h0c2.3,0,4.2-1.9,4.2-4.2l0,0
		C9.9,20.6,8,18.8,5.7,18.8z"/>
	<path class="st0" d="M54.4,5.1c-0.4-0.7-0.9-1.2-1.5-1.6C52.2,3.2,51.4,3,50.5,3h-3.2v9.2h3.1c0.9,0,1.7-0.2,2.4-0.6
		c0.7-0.4,1.2-0.9,1.5-1.6c0.4-0.7,0.5-1.5,0.5-2.5C54.9,6.6,54.7,5.8,54.4,5.1z M52.9,9.3c-0.2,0.5-0.5,0.8-1,1.1
		c-0.4,0.2-1,0.4-1.6,0.4H49V4.4h1.4c0.6,0,1.1,0.1,1.6,0.3c0.4,0.2,0.7,0.6,1,1c0.2,0.5,0.3,1,0.3,1.7C53.3,8.3,53.2,8.9,52.9,9.3z
		"/>
	<path class="st0" d="M57,4.3c0.3,0,0.5-0.1,0.7-0.3C57.9,3.9,58,3.7,58,3.4c0-0.2-0.1-0.5-0.3-0.6c-0.2-0.2-0.4-0.3-0.7-0.3
		c-0.3,0-0.5,0.1-0.7,0.3c-0.2,0.2-0.3,0.4-0.3,0.6c0,0.2,0.1,0.4,0.3,0.6C56.5,4.2,56.8,4.3,57,4.3z"/>
	<rect x="56.2" y="5.3" class="st0" width="1.6" height="6.9"/>
	<path class="st0" d="M65.4,6.8c-0.3-0.5-0.6-0.9-1-1.2C64,5.3,63.5,5.2,63,5.2c-0.4,0-0.7,0.1-1,0.2c-0.3,0.1-0.5,0.3-0.6,0.5
		c-0.2,0.2-0.3,0.4-0.4,0.5h-0.1V5.3h-1.6v9.5h1.6v-3.7H61c0.1,0.2,0.2,0.3,0.4,0.5c0.2,0.2,0.4,0.3,0.6,0.5c0.3,0.1,0.6,0.2,1,0.2
		c0.5,0,1-0.1,1.5-0.4c0.4-0.3,0.8-0.7,1-1.2c0.2-0.5,0.4-1.2,0.4-1.9C65.8,8,65.7,7.3,65.4,6.8z M64,9.9c-0.1,0.3-0.3,0.6-0.5,0.8
		c-0.2,0.2-0.5,0.3-0.9,0.3c-0.3,0-0.6-0.1-0.9-0.3c-0.2-0.2-0.4-0.4-0.6-0.8c-0.1-0.3-0.2-0.7-0.2-1.2c0-0.4,0.1-0.8,0.2-1.2
		c0.1-0.3,0.3-0.6,0.5-0.8c0.2-0.2,0.5-0.3,0.9-0.3c0.4,0,0.7,0.1,0.9,0.3C63.7,7,63.8,7.3,64,7.6c0.1,0.3,0.2,0.7,0.2,1.1
		C64.1,9.2,64.1,9.5,64,9.9z"/>
	<path class="st0" d="M68,12c0.3,0.2,0.7,0.3,1.2,0.3c0.5,0,1-0.1,1.3-0.4c0.4-0.2,0.6-0.6,0.8-0.9h0.1v1.2h1.6V5.3h-1.6v4
		c0,0.3-0.1,0.6-0.2,0.9c-0.1,0.2-0.3,0.4-0.6,0.5c-0.2,0.1-0.5,0.2-0.7,0.2c-0.4,0-0.7-0.1-0.9-0.4c-0.2-0.3-0.4-0.6-0.4-1V5.3
		h-1.6v4.4c0,0.5,0.1,1,0.3,1.4C67.4,11.5,67.7,11.8,68,12z"/>
	<path class="st0" d="M77.5,12.2c0.2,0,0.3-0.1,0.4-0.1l-0.3-1.3c0,0-0.1,0-0.2,0c-0.1,0-0.2,0-0.3,0c-0.1,0-0.3,0-0.4-0.1
		c-0.1,0-0.2-0.1-0.3-0.2c-0.1-0.1-0.1-0.3-0.1-0.5V6.5h1.4V5.3h-1.4V3.6h-1.6v1.6h-1v1.3h1v3.8c0,0.4,0.1,0.8,0.3,1.1
		c0.2,0.3,0.4,0.5,0.8,0.6c0.3,0.1,0.7,0.2,1.1,0.2C77.2,12.3,77.4,12.2,77.5,12.2z"/>
	<path class="st0" d="M84.4,12.2V7.6c0-0.5-0.1-0.8-0.2-1.1c-0.2-0.3-0.4-0.5-0.7-0.7c-0.3-0.2-0.6-0.3-0.9-0.4
		c-0.3-0.1-0.7-0.1-1-0.1c-0.5,0-0.9,0.1-1.3,0.2c-0.4,0.1-0.7,0.4-1,0.6c-0.3,0.3-0.5,0.6-0.6,1.1l1.5,0.2c0.1-0.2,0.2-0.4,0.5-0.6
		c0.2-0.2,0.5-0.3,0.9-0.3c0.4,0,0.7,0.1,0.9,0.3c0.2,0.2,0.3,0.4,0.3,0.8v0c0,0.2-0.1,0.3-0.2,0.3C82.5,7.9,82.3,8,82.1,8
		c-0.3,0-0.6,0.1-1,0.1c-0.3,0-0.7,0.1-1,0.2c-0.3,0.1-0.6,0.2-0.8,0.3C79,8.8,78.8,9,78.7,9.3c-0.1,0.3-0.2,0.6-0.2,1
		c0,0.5,0.1,0.8,0.3,1.1c0.2,0.3,0.5,0.5,0.8,0.7c0.3,0.2,0.7,0.2,1.2,0.2c0.4,0,0.7,0,0.9-0.1c0.3-0.1,0.5-0.2,0.7-0.4
		c0.2-0.2,0.3-0.3,0.4-0.5h0.1v0.9H84.4z M82.8,9.7c0,0.3-0.1,0.5-0.2,0.7c-0.1,0.2-0.3,0.4-0.6,0.5c-0.2,0.1-0.5,0.2-0.8,0.2
		c-0.3,0-0.6-0.1-0.8-0.2c-0.2-0.2-0.3-0.4-0.3-0.7c0-0.2,0.1-0.4,0.2-0.5c0.1-0.1,0.3-0.2,0.5-0.3c0.2-0.1,0.4-0.1,0.6-0.2
		c0.1,0,0.2,0,0.4-0.1c0.1,0,0.3,0,0.4-0.1c0.1,0,0.3-0.1,0.4-0.1c0.1,0,0.2-0.1,0.3-0.1V9.7z"/>
	<path class="st0" d="M87,11.9c0.5,0.3,1.1,0.5,1.8,0.5c0.6,0,1.1-0.1,1.5-0.3c0.4-0.2,0.8-0.5,1-0.9c0.2-0.4,0.4-0.8,0.4-1.3h-1.5
		c0,0.2-0.1,0.5-0.3,0.6c-0.1,0.2-0.3,0.3-0.5,0.4c-0.2,0.1-0.4,0.1-0.6,0.1c-0.3,0-0.6-0.1-0.9-0.3c-0.2-0.2-0.4-0.4-0.6-0.8
		c-0.1-0.3-0.2-0.7-0.2-1.2c0-0.5,0.1-0.9,0.2-1.2c0.1-0.3,0.3-0.6,0.6-0.8c0.3-0.2,0.5-0.3,0.9-0.3c0.4,0,0.7,0.1,0.9,0.3
		c0.2,0.2,0.4,0.5,0.4,0.8h1.5c0-0.5-0.2-0.9-0.4-1.3c-0.3-0.4-0.6-0.7-1-0.9c-0.4-0.2-0.9-0.3-1.5-0.3c-0.7,0-1.3,0.1-1.7,0.5
		c-0.5,0.3-0.9,0.7-1.1,1.3c-0.3,0.5-0.4,1.2-0.4,1.9c0,0.7,0.1,1.3,0.4,1.8C86.2,11.1,86.5,11.6,87,11.9z"/>
	<path class="st0" d="M93.7,4.3c0.3,0,0.5-0.1,0.7-0.3c0.2-0.2,0.3-0.4,0.3-0.6c0-0.2-0.1-0.5-0.3-0.6c-0.2-0.2-0.4-0.3-0.7-0.3
		c-0.3,0-0.5,0.1-0.7,0.3c-0.2,0.2-0.3,0.4-0.3,0.6c0,0.2,0.1,0.4,0.3,0.6C93.2,4.2,93.4,4.3,93.7,4.3z"/>
	<rect x="92.9" y="5.3" class="st0" width="1.6" height="6.9"/>
	<path class="st0" d="M101.8,10.6c0.3-0.5,0.4-1.2,0.4-1.9c0-0.7-0.1-1.3-0.4-1.9c-0.3-0.5-0.7-0.9-1.1-1.2
		c-0.5-0.3-1.1-0.4-1.7-0.4c-0.7,0-1.3,0.1-1.7,0.4c-0.5,0.3-0.9,0.7-1.1,1.2c-0.3,0.5-0.4,1.2-0.4,1.9c0,0.7,0.1,1.3,0.4,1.9
		c0.3,0.5,0.7,0.9,1.1,1.2c0.5,0.3,1.1,0.4,1.7,0.4c0.7,0,1.3-0.1,1.7-0.4C101.1,11.6,101.5,11.2,101.8,10.6z M100.4,9.9
		c-0.1,0.3-0.3,0.6-0.5,0.8c-0.2,0.2-0.5,0.3-0.9,0.3c-0.4,0-0.7-0.1-0.9-0.3c-0.2-0.2-0.4-0.5-0.6-0.8c-0.1-0.3-0.2-0.7-0.2-1.1
		c0-0.4,0.1-0.8,0.2-1.1C97.6,7.3,97.7,7,98,6.8c0.2-0.2,0.6-0.3,0.9-0.3c0.4,0,0.7,0.1,0.9,0.3c0.2,0.2,0.4,0.5,0.5,0.8
		c0.1,0.3,0.2,0.7,0.2,1.1C100.6,9.2,100.5,9.6,100.4,9.9z"/>
	<polygon class="st0" points="100.9,2.3 99.3,2.3 98.3,4.4 99.5,4.4 	"/>
	<path class="st0" d="M108.3,5.5c-0.4-0.2-0.8-0.3-1.2-0.3c-0.5,0-0.9,0.1-1.3,0.3c-0.3,0.2-0.6,0.5-0.8,0.9h-0.1V5.3h-1.5v6.9h1.6
		v-4c0-0.3,0.1-0.6,0.2-0.8c0.1-0.2,0.3-0.4,0.5-0.5c0.2-0.1,0.5-0.2,0.8-0.2c0.4,0,0.7,0.1,1,0.4c0.2,0.3,0.4,0.6,0.4,1.1v4.1h1.6
		V7.8c0-0.5-0.1-1-0.3-1.4C108.9,6,108.6,5.7,108.3,5.5z"/>
	<path class="st0" d="M119.2,3.4c-0.5-0.3-1.1-0.4-1.8-0.4H114v9.2h1.7V9.1h1.8c0.7,0,1.3-0.1,1.8-0.4c0.5-0.3,0.8-0.6,1.1-1.1
		c0.2-0.5,0.4-1,0.4-1.6c0-0.6-0.1-1.1-0.4-1.6C120.1,4,119.7,3.7,119.2,3.4z M118.8,6.9c-0.1,0.3-0.3,0.4-0.6,0.6
		c-0.3,0.1-0.6,0.2-1,0.2h-1.5V4.4h1.5c0.4,0,0.8,0.1,1,0.2c0.3,0.1,0.5,0.3,0.6,0.6c0.1,0.2,0.2,0.5,0.2,0.9
		C119,6.4,118.9,6.7,118.8,6.9z"/>
	<path class="st0" d="M125,5.2c-0.4,0-0.7,0.1-1.1,0.3c-0.3,0.2-0.5,0.5-0.6,0.9h-0.1V5.3h-1.6v6.9h1.6v-4c0-0.3,0.1-0.6,0.2-0.8
		c0.1-0.2,0.3-0.4,0.6-0.5c0.2-0.1,0.5-0.2,0.8-0.2c0.1,0,0.3,0,0.4,0c0.1,0,0.3,0,0.3,0.1V5.2c-0.1,0-0.2,0-0.3,0
		C125.2,5.2,125.1,5.2,125,5.2z"/>
	<path class="st0" d="M131.1,5.6c-0.5-0.3-1.1-0.4-1.7-0.4c-0.7,0-1.3,0.1-1.7,0.4c-0.5,0.3-0.9,0.7-1.1,1.2
		c-0.3,0.5-0.4,1.2-0.4,1.9c0,0.7,0.1,1.3,0.4,1.9c0.3,0.5,0.7,0.9,1.1,1.2c0.5,0.3,1.1,0.4,1.7,0.4c0.7,0,1.3-0.1,1.7-0.4
		c0.5-0.3,0.9-0.7,1.1-1.2c0.3-0.5,0.4-1.2,0.4-1.9c0-0.7-0.1-1.3-0.4-1.9C132,6.4,131.6,5.9,131.1,5.6z M130.9,9.9
		c-0.1,0.3-0.3,0.6-0.5,0.8c-0.2,0.2-0.5,0.3-0.9,0.3c-0.4,0-0.7-0.1-0.9-0.3c-0.2-0.2-0.4-0.5-0.6-0.8c-0.1-0.3-0.2-0.7-0.2-1.1
		c0-0.4,0.1-0.8,0.2-1.1c0.1-0.3,0.3-0.6,0.6-0.8s0.6-0.3,0.9-0.3c0.4,0,0.7,0.1,0.9,0.3c0.2,0.2,0.4,0.5,0.5,0.8
		C131,8,131,8.3,131,8.8C131,9.2,131,9.6,130.9,9.9z"/>
	<polygon class="st0" points="136.3,10.4 136.2,10.4 134.7,5.3 132.9,5.3 135.4,12.2 137.2,12.2 139.6,5.3 137.9,5.3 	"/>
	<rect x="140.4" y="5.3" class="st0" width="1.6" height="6.9"/>
	<path class="st0" d="M141.3,2.6c-0.3,0-0.5,0.1-0.7,0.3c-0.2,0.2-0.3,0.4-0.3,0.6c0,0.2,0.1,0.4,0.3,0.6c0.2,0.2,0.4,0.3,0.7,0.3
		c0.3,0,0.5-0.1,0.7-0.3c0.2-0.2,0.3-0.4,0.3-0.6c0-0.2-0.1-0.5-0.3-0.6C141.7,2.6,141.5,2.6,141.3,2.6z"/>
	<path class="st0" d="M148.5,5.5c-0.4-0.2-0.8-0.3-1.2-0.3c-0.5,0-0.9,0.1-1.3,0.3c-0.3,0.2-0.6,0.5-0.8,0.9h-0.1V5.3h-1.5v6.9h1.6
		v-4c0-0.3,0.1-0.6,0.2-0.8c0.1-0.2,0.3-0.4,0.5-0.5c0.2-0.1,0.5-0.2,0.8-0.2c0.4,0,0.7,0.1,1,0.4c0.2,0.3,0.4,0.6,0.4,1.1v4.1h1.6
		V7.8c0-0.5-0.1-1-0.3-1.4C149.1,6,148.8,5.7,148.5,5.5z"/>
	<path class="st0" d="M153.1,6.8c0.3-0.2,0.5-0.3,0.9-0.3c0.4,0,0.7,0.1,0.9,0.3c0.2,0.2,0.4,0.5,0.4,0.8h1.5c0-0.5-0.2-0.9-0.4-1.3
		c-0.3-0.4-0.6-0.7-1-0.9c-0.4-0.2-0.9-0.3-1.5-0.3c-0.7,0-1.3,0.1-1.7,0.5c-0.5,0.3-0.9,0.7-1.1,1.3c-0.3,0.5-0.4,1.2-0.4,1.9
		c0,0.7,0.1,1.3,0.4,1.8c0.3,0.5,0.6,1,1.1,1.3c0.5,0.3,1.1,0.5,1.8,0.5c0.6,0,1.1-0.1,1.5-0.3c0.4-0.2,0.8-0.5,1-0.9
		c0.2-0.4,0.4-0.8,0.4-1.3h-1.5c0,0.2-0.1,0.5-0.3,0.6c-0.1,0.2-0.3,0.3-0.5,0.4c-0.2,0.1-0.4,0.1-0.6,0.1c-0.3,0-0.6-0.1-0.9-0.3
		c-0.2-0.2-0.4-0.4-0.6-0.8c-0.1-0.3-0.2-0.7-0.2-1.2c0-0.5,0.1-0.9,0.2-1.2C152.7,7.2,152.9,7,153.1,6.8z"/>
	<path class="st0" d="M158.8,2.6c-0.3,0-0.5,0.1-0.7,0.3c-0.2,0.2-0.3,0.4-0.3,0.6c0,0.2,0.1,0.4,0.3,0.6c0.2,0.2,0.4,0.3,0.7,0.3
		c0.3,0,0.5-0.1,0.7-0.3c0.2-0.2,0.3-0.4,0.3-0.6c0-0.2-0.1-0.5-0.3-0.6C159.3,2.6,159.1,2.6,158.8,2.6z"/>
	<rect x="158" y="5.3" class="st0" width="1.6" height="6.9"/>
	<path class="st0" d="M165.8,5.7c-0.3-0.2-0.6-0.3-0.9-0.4c-0.3-0.1-0.7-0.1-1-0.1c-0.5,0-0.9,0.1-1.3,0.2c-0.4,0.1-0.7,0.4-1,0.6
		c-0.3,0.3-0.5,0.6-0.6,1.1l1.5,0.2c0.1-0.2,0.2-0.4,0.5-0.6c0.2-0.2,0.5-0.3,0.9-0.3c0.4,0,0.7,0.1,0.9,0.3
		c0.2,0.2,0.3,0.4,0.3,0.8v0c0,0.2-0.1,0.3-0.2,0.3c-0.1,0.1-0.3,0.1-0.5,0.2c-0.3,0-0.6,0.1-1,0.1c-0.3,0-0.7,0.1-1,0.2
		c-0.3,0.1-0.6,0.2-0.8,0.3c-0.2,0.2-0.4,0.4-0.6,0.6c-0.1,0.3-0.2,0.6-0.2,1c0,0.5,0.1,0.8,0.3,1.1c0.2,0.3,0.5,0.5,0.8,0.7
		c0.3,0.2,0.7,0.2,1.2,0.2c0.4,0,0.7,0,0.9-0.1c0.3-0.1,0.5-0.2,0.7-0.4c0.2-0.2,0.3-0.3,0.4-0.5h0.1v0.9h1.6V7.6
		c0-0.5-0.1-0.8-0.2-1.1S166,5.9,165.8,5.7z M165.1,9.7c0,0.3-0.1,0.5-0.2,0.7c-0.1,0.2-0.3,0.4-0.6,0.5c-0.2,0.1-0.5,0.2-0.8,0.2
		c-0.3,0-0.6-0.1-0.8-0.2c-0.2-0.2-0.3-0.4-0.3-0.7c0-0.2,0.1-0.4,0.2-0.5c0.1-0.1,0.3-0.2,0.5-0.3c0.2-0.1,0.4-0.1,0.6-0.2
		c0.1,0,0.2,0,0.4-0.1c0.1,0,0.3,0,0.4-0.1c0.1,0,0.3-0.1,0.4-0.1c0.1,0,0.2-0.1,0.3-0.1V9.7z"/>
	<rect x="168.1" y="3" class="st0" width="1.6" height="9.2"/>
	<path class="st0" d="M51.9,20.9L51.9,20.9c-0.2-0.2-0.3-0.3-0.4-0.5c-0.2-0.2-0.4-0.4-0.6-0.5c-0.3-0.1-0.6-0.2-1-0.2
		c-0.5,0-1,0.1-1.4,0.4c-0.4,0.3-0.8,0.7-1,1.2c-0.3,0.5-0.4,1.2-0.4,1.9c0,0.8,0.1,1.4,0.4,1.9c0.2,0.5,0.6,0.9,1,1.2
		c0.4,0.3,0.9,0.4,1.5,0.4c0.4,0,0.7-0.1,1-0.2c0.3-0.1,0.5-0.3,0.6-0.5c0.2-0.2,0.3-0.4,0.4-0.5h0.1v1.1h1.6v-9.2h-1.6V20.9z
		 M51.7,24.4c-0.1,0.3-0.3,0.6-0.6,0.8c-0.2,0.2-0.5,0.3-0.9,0.3c-0.4,0-0.7-0.1-0.9-0.3c-0.2-0.2-0.4-0.5-0.6-0.8
		c-0.1-0.3-0.2-0.7-0.2-1.1c0-0.4,0.1-0.8,0.2-1.1c0.1-0.3,0.3-0.6,0.5-0.8c0.2-0.2,0.5-0.3,0.9-0.3c0.3,0,0.6,0.1,0.9,0.3
		c0.2,0.2,0.4,0.4,0.5,0.8c0.1,0.3,0.2,0.7,0.2,1.2C51.9,23.6,51.8,24,51.7,24.4z"/>
	<path class="st0" d="M60.2,20.5c-0.3-0.3-0.6-0.5-1-0.6c-0.4-0.1-0.8-0.2-1.2-0.2c-0.7,0-1.2,0.1-1.7,0.5c-0.5,0.3-0.9,0.7-1.1,1.3
		c-0.3,0.5-0.4,1.2-0.4,1.9c0,0.7,0.1,1.3,0.4,1.9c0.3,0.5,0.7,0.9,1.2,1.2c0.5,0.3,1.1,0.4,1.8,0.4c0.5,0,1-0.1,1.4-0.2
		c0.4-0.2,0.8-0.4,1-0.7c0.3-0.3,0.4-0.6,0.5-1l-1.5-0.2c-0.1,0.2-0.2,0.4-0.3,0.5c-0.1,0.1-0.3,0.2-0.5,0.3
		c-0.2,0.1-0.4,0.1-0.6,0.1c-0.4,0-0.7-0.1-0.9-0.2c-0.3-0.2-0.5-0.4-0.6-0.7c-0.1-0.3-0.2-0.6-0.2-1h4.8v-0.5
		c0-0.6-0.1-1.1-0.3-1.6C60.7,21.2,60.4,20.8,60.2,20.5z M56.3,22.6c0-0.3,0.1-0.5,0.2-0.8c0.1-0.3,0.3-0.5,0.6-0.6
		c0.3-0.2,0.5-0.2,0.9-0.2c0.3,0,0.6,0.1,0.8,0.2c0.2,0.1,0.4,0.3,0.5,0.6c0.1,0.2,0.2,0.5,0.2,0.8H56.3z"/>
	<polygon class="st0" points="70.3,24.1 70.2,24.1 67.5,17.5 65.4,17.5 65.4,26.6 67,26.6 67,20.3 67.1,20.3 69.7,26.6 70.9,26.6
		73.4,20.3 73.5,20.3 73.5,26.6 75.1,26.6 75.1,17.5 73,17.5 	"/>
	<path class="st0" d="M81.4,20.2c-0.3-0.2-0.6-0.3-0.9-0.4c-0.3-0.1-0.7-0.1-1-0.1c-0.5,0-0.9,0.1-1.3,0.2c-0.4,0.1-0.7,0.4-1,0.6
		c-0.3,0.3-0.5,0.6-0.6,1.1l1.5,0.2c0.1-0.2,0.2-0.4,0.5-0.6c0.2-0.2,0.5-0.3,0.9-0.3c0.4,0,0.7,0.1,0.9,0.3
		c0.2,0.2,0.3,0.4,0.3,0.8v0c0,0.2-0.1,0.3-0.2,0.3c-0.1,0.1-0.3,0.1-0.5,0.2c-0.3,0-0.6,0.1-1,0.1c-0.3,0-0.7,0.1-1,0.2
		c-0.3,0.1-0.6,0.2-0.8,0.3c-0.2,0.2-0.4,0.4-0.6,0.6c-0.1,0.3-0.2,0.6-0.2,1c0,0.5,0.1,0.8,0.3,1.1c0.2,0.3,0.5,0.5,0.8,0.7
		c0.3,0.2,0.7,0.2,1.2,0.2c0.4,0,0.7,0,0.9-0.1s0.5-0.2,0.7-0.4c0.2-0.2,0.3-0.3,0.4-0.5h0.1v0.9h1.6V22c0-0.5-0.1-0.8-0.2-1.1
		C81.9,20.6,81.6,20.3,81.4,20.2z M80.6,24.2c0,0.3-0.1,0.5-0.2,0.7c-0.1,0.2-0.3,0.4-0.6,0.5c-0.2,0.1-0.5,0.2-0.8,0.2
		c-0.3,0-0.6-0.1-0.8-0.2c-0.2-0.2-0.3-0.4-0.3-0.7c0-0.2,0.1-0.4,0.2-0.5c0.1-0.1,0.3-0.2,0.5-0.3c0.2-0.1,0.4-0.1,0.6-0.2
		c0.1,0,0.2,0,0.4-0.1c0.1,0,0.3,0,0.4-0.1c0.1,0,0.3-0.1,0.4-0.1c0.1,0,0.2-0.1,0.3-0.1V24.2z"/>
	<polygon class="st0" points="81.5,16.8 79.9,16.8 78.9,18.9 80.1,18.9 	"/>
	<rect x="83.7" y="17.5" class="st0" width="1.6" height="9.2"/>
	<path class="st0" d="M91.5,20.2c-0.3-0.2-0.6-0.3-0.9-0.4c-0.3-0.1-0.7-0.1-1-0.1c-0.5,0-0.9,0.1-1.3,0.2c-0.4,0.1-0.7,0.4-1,0.6
		c-0.3,0.3-0.5,0.6-0.6,1.1l1.5,0.2c0.1-0.2,0.2-0.4,0.5-0.6c0.2-0.2,0.5-0.3,0.9-0.3c0.4,0,0.7,0.1,0.9,0.3
		c0.2,0.2,0.3,0.4,0.3,0.8v0c0,0.2-0.1,0.3-0.2,0.3c-0.1,0.1-0.3,0.1-0.5,0.2c-0.3,0-0.6,0.1-1,0.1c-0.3,0-0.7,0.1-1,0.2
		c-0.3,0.1-0.6,0.2-0.8,0.3c-0.2,0.2-0.4,0.4-0.6,0.6c-0.1,0.3-0.2,0.6-0.2,1c0,0.5,0.1,0.8,0.3,1.1c0.2,0.3,0.5,0.5,0.8,0.7
		c0.3,0.2,0.7,0.2,1.2,0.2c0.4,0,0.7,0,0.9-0.1s0.5-0.2,0.7-0.4c0.2-0.2,0.3-0.3,0.4-0.5h0.1v0.9h1.6V22c0-0.5-0.1-0.8-0.2-1.1
		C92,20.6,91.8,20.3,91.5,20.2z M90.8,24.2c0,0.3-0.1,0.5-0.2,0.7c-0.1,0.2-0.3,0.4-0.6,0.5c-0.2,0.1-0.5,0.2-0.8,0.2
		c-0.3,0-0.6-0.1-0.8-0.2C88.1,25.2,88,25,88,24.7c0-0.2,0.1-0.4,0.2-0.5c0.1-0.1,0.3-0.2,0.5-0.3c0.2-0.1,0.4-0.1,0.6-0.2
		c0.1,0,0.2,0,0.4-0.1c0.1,0,0.3,0,0.4-0.1c0.1,0,0.3-0.1,0.4-0.1c0.1,0,0.2-0.1,0.3-0.1V24.2z"/>
	<path class="st0" d="M98.4,20.9L98.4,20.9c-0.2-0.2-0.3-0.3-0.4-0.5c-0.2-0.2-0.4-0.4-0.6-0.5c-0.3-0.1-0.6-0.2-1-0.2
		c-0.5,0-1,0.1-1.4,0.4c-0.4,0.3-0.8,0.7-1,1.2c-0.3,0.5-0.4,1.2-0.4,1.9c0,0.7,0.1,1.4,0.4,1.9c0.3,0.5,0.6,0.9,1,1.1
		c0.4,0.2,0.9,0.4,1.4,0.4c0.4,0,0.7-0.1,1-0.2c0.3-0.1,0.5-0.3,0.6-0.4c0.2-0.2,0.3-0.3,0.4-0.5h0.1v1.3c0,0.5-0.2,0.8-0.5,1.1
		c-0.3,0.2-0.7,0.3-1.1,0.3c-0.3,0-0.6,0-0.8-0.1c-0.2-0.1-0.4-0.2-0.5-0.3c-0.1-0.1-0.2-0.3-0.3-0.4l-1.5,0.4
		c0.1,0.3,0.3,0.6,0.5,0.9c0.3,0.3,0.6,0.5,1,0.6c0.4,0.2,0.9,0.2,1.5,0.2c0.6,0,1.2-0.1,1.7-0.3c0.5-0.2,0.9-0.5,1.2-0.9
		c0.3-0.4,0.4-0.9,0.4-1.4v-7h-1.6V20.9z M98.2,24.3c-0.1,0.3-0.3,0.6-0.6,0.7c-0.2,0.2-0.5,0.3-0.9,0.3c-0.4,0-0.7-0.1-0.9-0.3
		c-0.2-0.2-0.4-0.4-0.6-0.7c-0.1-0.3-0.2-0.7-0.2-1.1c0-0.4,0.1-0.8,0.2-1.1c0.1-0.3,0.3-0.6,0.5-0.8c0.2-0.2,0.5-0.3,0.9-0.3
		c0.3,0,0.6,0.1,0.9,0.3s0.4,0.4,0.5,0.8s0.2,0.7,0.2,1.1C98.4,23.6,98.4,24,98.2,24.3z"/>
	<path class="st0" d="M106.2,20.2c-0.3-0.2-0.6-0.3-0.9-0.4c-0.3-0.1-0.7-0.1-1-0.1c-0.5,0-0.9,0.1-1.3,0.2c-0.4,0.1-0.7,0.4-1,0.6
		c-0.3,0.3-0.5,0.6-0.6,1.1l1.5,0.2c0.1-0.2,0.2-0.4,0.5-0.6c0.2-0.2,0.5-0.3,0.9-0.3c0.4,0,0.7,0.1,0.9,0.3
		c0.2,0.2,0.3,0.4,0.3,0.8v0c0,0.2-0.1,0.3-0.2,0.3c-0.1,0.1-0.3,0.1-0.5,0.2c-0.3,0-0.6,0.1-1,0.1c-0.3,0-0.7,0.1-1,0.2
		c-0.3,0.1-0.6,0.2-0.8,0.3c-0.2,0.2-0.4,0.4-0.6,0.6c-0.1,0.3-0.2,0.6-0.2,1c0,0.5,0.1,0.8,0.3,1.1c0.2,0.3,0.5,0.5,0.8,0.7
		c0.3,0.2,0.7,0.2,1.2,0.2c0.4,0,0.7,0,0.9-0.1s0.5-0.2,0.7-0.4c0.2-0.2,0.3-0.3,0.4-0.5h0.1v0.9h1.6V22c0-0.5-0.1-0.8-0.2-1.1
		C106.7,20.6,106.5,20.3,106.2,20.2z M105.5,24.2c0,0.3-0.1,0.5-0.2,0.7c-0.1,0.2-0.3,0.4-0.6,0.5c-0.2,0.1-0.5,0.2-0.8,0.2
		c-0.3,0-0.6-0.1-0.8-0.2c-0.2-0.2-0.3-0.4-0.3-0.7c0-0.2,0.1-0.4,0.2-0.5c0.1-0.1,0.3-0.2,0.5-0.3c0.2-0.1,0.4-0.1,0.6-0.2
		c0.1,0,0.2,0,0.4-0.1c0.1,0,0.3,0,0.4-0.1c0.1,0,0.3-0.1,0.4-0.1c0.1,0,0.2-0.1,0.3-0.1V24.2z"/>
</g>
</svg>
